<svg id="Capa_1" enable-background="new 0 0 512 512" height="512" viewBox="0 0 512 512" width="512"
    xmlns="http://www.w3.org/2000/svg">
    <g>
        <g>
            <path d="m462 36v240h-412v-240z" fill="#eefaff" />
            <path d="m462 276 40 200h-492l40-200z" fill="#a0c8ff" />
            <path d="m250 156h-80v-80c44.18 0 80 35.82 80 80z" fill="#fff2a0" />
            <path d="m170 156h80c0 44.18-35.82 80-80 80-22.09 0-42.09-8.96-56.57-23.43z" fill="#ff9256" />
            <path d="m170 76v80l-56.57 56.57c-14.47-14.48-23.43-34.48-23.43-56.57 0-44.18 35.82-80 80-80z"
                fill="#aaf9dd" />
            <path
                d="m429.21 316c-107.497 0-239.036 0-346.42 0-8.659 43.293-15.548 77.741-24 120h394.42c-8.659-43.293-15.548-77.74-24-120z"
                fill="#eefaff" />
        </g>
        <g>
            <circle cx="290" cy="116" r="10" />
            <circle cx="290" cy="156" r="10" />
            <circle cx="290" cy="196" r="10" />
            <path
                d="m460.943 442.34c1.899-2.317 2.66-5.363 2.072-8.301-8.326-41.632-19.698-98.488-24-120-.935-4.674-5.039-8.039-9.806-8.039h-346.419c-4.767 0-8.871 3.365-9.806 8.039-10.916 54.579-12.727 63.633-24 120-.588 2.938.173 5.984 2.072 8.301s4.738 3.66 7.734 3.66h394.42c2.996 0 5.834-1.343 7.733-3.66zm-70.943-116.34h31.012l4 20h-35.012zm0 40h39.012l4 20h-43.012zm-186-40h42v20h-42zm0 40h42v20h-42zm-62-40h42v20h-42zm0 40h42v20h-42zm-20 60h-51.012l4-20h47.012zm0-40h-43.012l4-20h39.012zm0-40h-35.012l4-20h31.012zm186 80h-166v-20h166zm0-40h-42v-20h42zm0-40h-42v-20h42zm62 80h-42v-20h42zm0-40h-42v-20h42zm0-40h-42v-20h42zm20 80v-20h47.012l4 20z" />
            <path
                d="m462 26h-412c-5.523 0-10 4.477-10 10v239.01l-39.806 199.029c-.588 2.938.173 5.984 2.072 8.301s4.738 3.66 7.734 3.66h201c5.523 0 10-4.477 10-10s-4.477-10-10-10h-188.802l36-180h395.604l36 180h-188.802c-5.522 0-10 4.477-10 10s4.478 10 10 10h201c2.996 0 5.834-1.343 7.733-3.66s2.66-5.363 2.072-8.301l-39.805-199.029v-239.01c0-5.523-4.477-10-10-10zm-10 240h-392v-220h392z" />
            <path
                d="m170 246c49.626 0 90-40.374 90-90s-40.374-90-90-90-90 40.374-90 90c0 49.697 40.278 90 90 90zm10-159.274c30.609 4.399 54.875 28.666 59.274 59.274h-59.274zm-5.857 79.264h65.132c-4.869 33.887-34.073 60.01-69.275 60.01-15.316 0-29.882-4.897-41.922-13.936zm-14.143-79.264v65.132l-46.064 46.064c-9.04-12.042-13.936-26.607-13.936-41.922 0-35.202 26.124-64.406 60-69.274z" />
            <path d="m330 126h92c5.522 0 10-4.477 10-10s-4.478-10-10-10h-92c-5.522 0-10 4.477-10 10s4.478 10 10 10z" />
            <path d="m330 166h92c5.522 0 10-4.477 10-10s-4.478-10-10-10h-92c-5.522 0-10 4.477-10 10s4.478 10 10 10z" />
            <path d="m330 206h92c5.522 0 10-4.477 10-10s-4.478-10-10-10h-92c-5.522 0-10 4.477-10 10s4.478 10 10 10z" />
            <circle cx="256" cy="476" r="10" />
        </g>
    </g>
</svg>